<svg width="260" viewBox="0 0 388 192" fill="none" xmlns="http://www.w3.org/2000/svg" role="presentation" alt="Nintendo logo" data-testid="NintendoRacetrackLogoBoxIcon" size="260"><g><rect width="388" height="192" fill="#E60012"></rect><path d="M112.15 101.892L99.1546 80.8821H89.7753L89.7713 111.016H99.0991V90.0034L112.153 111.016H121.458V80.8821H112.134L112.15 101.892ZM186.069 91.0192V88.0391H181.161V83.9821H172.092L172.1 88.0424H167.17V91.0192H172.096L172.092 111.016H181.176L181.161 91.0192L186.069 91.0192ZM126.639 111.016H135.697V90.9819L126.639 90.9739V111.016ZM126.617 87.0344H135.697V80.871H126.617V87.0344ZM285.415 89.6134C278.104 89.6134 272.169 94.645 272.169 100.857C272.169 107.073 278.104 112.104 285.415 112.104C292.729 112.104 298.653 107.073 298.653 100.857C298.653 94.645 292.729 89.6134 285.415 89.6134ZM289.044 105.074C289.044 108.269 287.158 109.584 285.343 109.584C283.529 109.584 281.636 108.269 281.636 105.074V100.755C281.636 100.755 281.64 97.7903 281.64 96.583C281.64 93.4036 283.532 92.0875 285.343 92.0875C287.15 92.0875 289.044 93.4036 289.044 96.583C289.044 97.7903 289.044 100.036 289.055 100.838C289.055 100.894 289.044 103.867 289.044 105.074ZM260.281 91.9676C258.834 91.1542 257.304 90.3672 255.156 90.1797C248.622 89.6094 243.639 95.3797 243.639 100.669C243.639 107.639 249.016 110.222 249.829 110.604C252.884 112.025 256.791 112.029 260.258 109.854C260.258 110.042 260.262 111.013 260.262 111.013H269.215V80.8821H260.281V91.9676ZM260.349 100.894V104.452C260.349 107.545 258.204 108.351 256.795 108.351C255.355 108.351 253.244 107.545 253.244 104.452V97.3138C253.244 94.2098 255.355 93.4258 256.795 93.4258C258.204 93.4258 260.345 94.2098 260.345 97.3138C260.345 98.3788 260.349 100.894 260.349 100.894ZM156.912 90.0519C153.913 90.1384 151.424 91.4244 149.685 93.074C149.674 92.5752 149.685 90.9669 149.685 90.9669L140.679 90.9739L140.694 111.005H149.685C149.685 111.005 149.674 98.7013 149.674 97.8467C149.674 96.1033 151.511 94.1613 153.974 94.1613C156.441 94.1613 158.113 96.1033 158.113 97.8467V111.005H167.125C167.125 111.005 167.114 101.517 167.125 100.107C167.17 92.1741 160.298 89.9549 156.912 90.0519ZM230.547 90.0519C227.544 90.1384 225.051 91.4244 223.316 93.074C223.305 92.5752 223.316 90.9669 223.316 90.9669L214.325 90.9739L214.321 111.005H223.316C223.316 111.005 223.305 98.7013 223.305 97.8467C223.305 96.1033 225.145 94.1613 227.612 94.1613C230.079 94.1613 231.748 96.1033 231.748 97.8467V111.005H240.752C240.752 111.005 240.741 101.517 240.752 100.107C240.797 92.1741 233.929 89.9549 230.547 90.0519ZM211.581 101.082C211.581 94.8658 205.579 89.7222 198.208 89.7222C190.846 89.7222 184.87 94.753 184.87 100.969C184.87 107.182 190.846 112.216 198.208 112.216C204.326 112.216 209.489 108.726 211.067 103.998L202.033 104.006C202.033 104.006 202.044 104.092 202.044 105.221C202.044 108.884 199.633 109.693 198.291 109.693C196.949 109.693 194.501 108.884 194.501 105.221C194.501 104.122 194.512 101.082 194.512 101.082C194.512 101.082 211.581 101.089 211.581 101.082ZM195.104 94.0263C195.817 92.7928 197.114 92.2114 198.291 92.2003C199.472 92.2114 200.769 92.7928 201.481 94.0263C202.051 95.0342 202.081 96.2081 202.066 97.9587H194.508C194.493 96.2081 194.531 95.0342 195.104 94.0263ZM302.259 84.6048C302.259 83.6192 301.532 83.1235 300.07 83.1235H298.052V88.2639H299.305V86.1608H299.916L300.898 88.2639H302.286L301.138 85.9693C301.843 85.7858 302.259 85.28 302.259 84.6048ZM299.916 85.407H299.305V83.9146H299.848C300.598 83.9146 300.97 84.1433 300.97 84.6795C300.97 85.1893 300.628 85.407 299.916 85.407ZM299.954 81.118C297.393 81.118 295.308 83.199 295.308 85.7596C295.308 88.3203 297.393 90.3974 299.954 90.3974C302.514 90.3974 304.584 88.3203 304.584 85.7596C304.584 83.199 302.514 81.118 299.954 81.118ZM299.954 89.5046C297.88 89.5046 296.201 87.8287 296.201 85.7596C296.201 83.6858 297.88 82.0068 299.954 82.0068C302.023 82.0068 303.703 83.6858 303.703 85.7596C303.703 87.8287 302.023 89.5046 299.954 89.5046ZM289.842 64.0001H97.9482C77.639 63.9517 64 78.5541 64 96.054C64 113.562 77.6096 127.992 97.9815 128H289.813C310.192 127.992 323.793 113.562 323.793 96.054C323.793 78.5541 310.154 63.9516 289.842 64.0001ZM289.756 120.149H98.0419C81.8533 120.213 72.0156 109.344 72.0156 96.0128C72.0156 82.6811 81.9097 71.907 98.0419 71.8728H289.756C305.881 71.907 315.775 82.6811 315.775 96.0128C315.775 109.344 305.941 120.213 289.756 120.149Z" fill="white"></path></g></svg>